<svg width="24" height="18" viewBox="0 0 24 18" fill="none" xmlns="http://www.w3.org/2000/svg">
<g clip-path="url(#clip0_1002_6)">
<mask id="path-1-inside-1_1002_6" fill="white">
<path d="M0 1.99999C0 0.895426 0.895426 0 1.99999 0H22C23.1046 0 24 0.895426 24 1.99999V15.9999C24 17.1045 23.1046 17.9999 22 17.9999H1.99999C0.895425 17.9999 0 17.1045 0 15.9999V1.99999Z"/>
</mask>
<g clip-path="url(#clip1_1002_6)">
<rect width="24.0001" height="18" fill="#F93939"/>
<path fill-rule="evenodd" clip-rule="evenodd" d="M0.00292967 0H24.0026V11.9999H0.00292967V0Z" fill="#B20000"/>
<path fill-rule="evenodd" clip-rule="evenodd" d="M0.00292967 11.9999H24.0026V17.9999H0.00292967V11.9999Z" fill="#429F00"/>
<path fill-rule="evenodd" clip-rule="evenodd" d="M0 0H3.98708V17.9999H0V0Z" fill="white"/>
<path fill-rule="evenodd" clip-rule="evenodd" d="M0.3798 0.305858H0.189939V0.611716H0.3798V0.305858ZM0.949383 0.305858H0.759522V0.611716H0.569661V0.914058H0.3798V1.21992H0.189939V1.52577H0.569661V1.21992H0.759522V0.914058H0.949383V0.611716H1.13924V0.914058H1.32911V1.21992H1.51897V1.52577H1.89869V1.21992H1.70883V0.914058H1.51897V0.611716H1.32911V0.305858H1.13924V0H0.949383V0.305858ZM2.08855 0H1.89869V0.305858H2.08855V0ZM2.84799 0.305858H2.65813V0.611716H2.46827V0.914058H2.27841V1.21992H2.65813V0.914058H2.84799V0.611716H3.03786V0.914058H3.22772V1.21992H3.41758V1.52577H3.7973V1.21992H3.60744V0.914058H3.41758V0.611716H3.22772V0.305858H3.03786V0H2.84799V0.305858ZM3.7973 0.305858H3.60744V0.611716H3.7973V0.305858ZM0.759522 2.43983V2.13397H0.569584V1.83168H0.379722V1.52582H0V1.83168H0.189861V2.13402H0.3798V2.43983H0.569661V2.74569H0.759522V3.05155H0.949306V3.35736H1.13917V3.05155H1.32911V2.74569H1.51897V2.43983H1.70883V2.13749H1.32911V2.43983H1.13924V2.74569H0.949383V2.43983H0.759522ZM2.65806 2.13744H2.27833V2.43978H2.46819V2.74564H2.65806V3.0515H2.84792V3.35736H3.03778V3.0515H3.22764V2.74564H3.4175V2.43978H3.60736V2.13744H3.22764V2.43978H3.03778V2.74564H2.84792V2.43978H2.65806V2.13744ZM2.08847 2.74213H1.89861V3.04798H2.08847V2.74213ZM0.189861 2.74213H0V3.04798H0.189861V2.74213ZM3.98708 2.74213H3.79722V3.04798H3.98708V2.74213ZM1.13917 4.2679H0.949306V4.57376H1.13917V4.2679ZM1.32903 4.57727H0.759445V4.87962H0.569584V5.18547H0.379722V5.49133H0.189861V5.79719H0.949306V5.49133H1.13917V5.79719H1.89861V5.49133H1.70875V5.18547H1.51889V4.87962H1.32903V4.57727ZM3.03778 4.27142H2.84792V4.57727H2.65806V4.87962H2.46819V5.18547H2.27833V5.49133H2.08847V5.79719H2.84792V5.49133H3.03778V5.79719H3.79722V5.49133H3.60736V5.18547H3.4175V4.87962H3.22764V4.57727H3.03778V4.27142ZM2.84792 6.40539H2.65806V6.71125H3.60736V6.40539H3.79722V6.10656H3.98708V5.8007H3.03778V6.10305H2.84792V6.40539ZM1.13917 7.01711V6.71125H1.32903V6.40539H1.13917V6.10305H0.949306V5.79719L0 5.79729V6.10315H0.189861V6.40539H0.379722V6.71125H0.569584V7.01711H1.13917ZM3.4175 6.71476H2.84792V7.02062H3.03778V7.32306H3.22764V7.02062H3.4175V6.71476ZM0.759445 7.0172H0.949306V7.32306H0.759445V7.0172ZM1.70875 6.40549H2.27833V6.71135H1.70875V6.40549ZM1.89861 6.71486H2.08847V7.01369H1.89861V6.71486ZM1.89861 7.01369H1.70875V7.31955H1.51889V7.62189H1.32903V7.92775H1.13917V8.2336H1.51889V7.92775H1.70875V7.62189H1.89861V7.31955H2.08847V7.62189H2.27833V7.92775H2.46819V8.2336H2.84792V7.92775H2.65806V7.62189H2.46819V7.31955H2.27833V7.01369H2.08847V7.02072H1.89861V7.01369ZM1.32903 5.8008H2.65806V6.10666H2.46819V6.40539H1.51889V6.10666H1.32903V5.8008ZM2.08847 1.21996H2.46819V1.52582H2.27833V1.83168H2.46819V2.13402H2.08847V1.83168H1.89861V2.13402H1.51889V1.83168H1.70875V1.52582H2.08847V1.21996ZM3.60736 1.52582H3.98708V1.82817H3.79722V2.13051H3.4175V1.82817H3.60736V1.52582ZM0 4.57034H0.189861V4.8762H0V4.57034ZM3.79722 4.57034H3.98708V4.8762H3.79722V4.57034ZM0.949306 8.54298V8.23712H1.32903V8.54298H1.13917V8.84884H0.949306V9.15115H1.13917V9.45701H1.32903V9.76287H0.949306V9.45701H0.759445V9.76287H0.569584V10.0687H0.379722V10.0652H0.189861V9.76287H0.379722V9.45701H0.569584V9.15115H0.759445V8.84884H0.569584V8.54298H0.379722V8.23712H0.189861V7.93478H0.379722V7.93126H0.569584V8.23712H0.759445V8.54298H0.949306ZM0.379722 7.93126V7.62892H0V7.93478H0.189861V7.93126H0.379722ZM0 10.0652H0.189861V10.0687H0.379722V10.3711H0.189861V10.6804H0V10.0652ZM3.03778 8.23712V8.54298H3.22764V8.23712H3.4175V7.93126H3.60736V7.6254H3.98708V7.93126H3.79722V8.23712H3.60736V8.54298H3.4175V8.84884H2.84792V8.54298H2.65806V8.23712H3.03778ZM3.03778 8.85235H3.22764V9.15115H3.4175V9.45701H3.60736V9.76287H3.79722V10.0687H3.98708V10.6804H3.79722V10.3746H3.60736V10.0687H3.4175V9.76287H3.22764V9.45701H3.03778V9.76287H2.65806V9.45701H2.84792V9.15115H3.03778V8.85235ZM1.89861 7.93829H2.08847V8.24063H1.89861V7.93829ZM1.32903 8.85235H1.51889V9.15469H1.32903V8.85235ZM2.46819 8.85235H2.65806V9.15469H2.46819V8.85235ZM1.89861 8.85235H2.08847V9.15113H2.27833V9.45699H2.08847V9.15469H1.89861V9.45699H1.70875V9.15113H1.89861V8.85235ZM0 8.85235H0.189861V9.15469H0V8.85235ZM3.79722 8.85235H3.98708V9.15469H3.79722V8.85235ZM1.89861 4.57737H2.08847V4.87971H1.89861V4.57737ZM0.949306 1.52582H1.13917V1.83168H0.949306V1.52582ZM2.84792 1.52582H3.03778V1.83168H2.84792V1.52582ZM1.89861 3.6598H2.08847V3.35745H2.27833V3.0516H2.46819V3.35745H2.65806V3.6598H2.84792V3.96566H2.65806V4.27151H2.46819V4.57737H2.27833V4.27151H2.08847V3.96566H1.89861V4.27151H1.70875V4.57737H1.51889V4.27151H1.32903V3.96566H1.13917V3.6598H1.32903V3.35745H1.51889V3.0516H1.70875V3.35745H1.89861V3.6598ZM2.27833 3.6598V3.96566H2.46819V3.6598H2.27833ZM1.70875 3.96566V3.6598H1.51889V3.96566H1.70875ZM3.03778 3.6598H3.22764V3.35745H3.4175V3.0516H3.60736V3.35745H3.79722V3.6598H3.98708V3.96566H3.79722V4.27151H3.60736V4.57737H3.4175V4.27151H3.22764V3.96566H3.03778V3.6598ZM3.4175 3.6598V3.96566H3.60736V3.6598H3.4175ZM0 3.65628H0.189861V3.35394H0.379722V3.0515H0.569584V3.35394H0.759445V3.65628H0.949306V3.96214H0.759445V4.268H0.189861V3.96214H0V3.65628ZM0.379722 3.65628V3.96214H0.569584V3.65628H0.379722ZM0.569584 4.27142H0.379722V4.57727H0.569584V4.27142ZM3.98708 7.32296H3.79722V7.62531L3.98708 7.6254V7.32296ZM0.189861 7.32296H0V7.62531H0.189861V7.32296ZM0.379722 17.694H0.189861V17.3917H0.379722V17.694ZM0.949306 17.694H0.759445V17.3917H1.32903V17.694H1.13917V17.9999H0.949306V17.694ZM2.08847 17.9999H1.89861V17.694H2.08847V17.9999ZM2.84792 17.694H2.65806V17.3882H2.46819V17.0858H2.27833V16.7799H2.65806V17.0858H2.84792V17.3882H3.03778V17.0858H3.22764V16.7799H3.4175V16.4741H3.60736V16.1718H3.98708V16.4742H3.79722V16.7799H3.60736V17.0858H3.4175V17.3882H3.22764V17.694H3.03778V17.9999H2.84792V17.694ZM0.949306 17.3882H0.569584V17.0859H0.379722V16.78H0.759445V17.0858H0.949306V17.3882ZM1.51889 17.0858V17.3882H1.13917V17.0858H1.32903V16.7799H1.51889V16.4741H1.89861V16.7799H1.70875V17.0858H1.51889ZM3.79722 17.694H3.60736V17.3882H3.79722V17.694ZM0.569584 16.7799H0.189861V16.4742H0V16.1718H0.379722V16.4741H0.569584V16.7799ZM0.759445 15.8659H0.379722V15.56H0.569584V15.2542H0.759445V14.9483H0.949306V14.646H1.13917V14.9483H1.32903V15.2542H1.51889V15.56H1.70875V15.8589H1.89861V16.1648H1.51889V15.8659H1.32903V15.56H1.13917V15.2542H0.949306V15.56H0.759445V15.8659ZM2.65806 15.8624H2.46819V16.1648H2.08847V15.8589H2.27833V15.56H2.46819V15.2542H2.65806V14.9483H2.84792V14.646H3.03778V14.9483H3.22764V15.2542H3.4175V15.56H3.60736V15.8659H3.22764V15.56H3.03778V15.2542H2.84792V15.56H2.65806V15.8624ZM2.08847 15.2577H1.89861V14.9518H2.08847V15.2577ZM0.189861 15.2577H0V14.9518H0.189861V15.2577ZM3.98708 15.2577H3.79722V14.9518H3.98708V15.2577ZM1.13917 13.7319H0.949306V13.4261H1.13917V13.7319ZM1.32903 13.4225H0.759445V13.1202H0.569584V12.8144H0.379722V12.5086H1.70875V12.8144H1.51889V13.1202H1.32903V13.4225ZM3.03778 13.7284H2.84792V13.4226H2.65806V13.1203H2.46819V12.8144H2.27833V12.5086H3.60736V12.8144H3.4175V13.1203H3.22764V13.4226H3.03778V13.7284ZM2.84792 11.5945H2.65806V11.2851H2.84792V10.9793H3.03778V10.6769H3.22764V10.9793H3.4175V11.2851H3.60736V11.5945H3.79722V11.8933H3.98708V12.1992H3.03778V11.8968H2.84792V11.5945ZM0.569584 11.2886H1.13917V11.2851H1.32903V11.5945H1.13917V11.8968H0.949306V12.1992H0V11.8933H0.189861V11.5945H0.379722V11.2851H0.569584V11.2886ZM0.569584 11.2851V10.9828H1.13917V11.2851H0.569584ZM1.70875 11.591H2.27833V11.2851H2.08847V10.9828H2.27833V10.6804H2.46819V10.3781H2.65806V10.0722H2.84792V9.76638H2.46819V10.0722H2.27833V10.3781H2.08847V10.6769H1.89861V10.3781H1.70875V10.0722H1.51889V9.76638H1.13917V10.0722H1.32903V10.3781H1.51889V10.6804H1.70875V10.9828H1.89861V11.2851H1.70875V11.591ZM1.32903 12.1992H2.65806V11.8933H2.46819V11.5945H1.51889V11.8933H1.32903V12.1992ZM2.08847 16.7765H2.46819V16.4706H2.27833V16.1718H1.70875V16.4706H2.08847V16.7765ZM0.189861 16.1683H0.569584V15.866H0.189861V16.1683ZM3.4175 16.1683H3.79722V15.866H3.4175V16.1683ZM0 13.4296H0.189861V13.1238H0V13.4296ZM3.79722 13.4296H3.98708V13.1238H3.79722V13.4296ZM1.89861 10.0617H2.08847V9.75935H1.89861V10.0617ZM1.89861 13.4191H2.08847V13.1168H1.89861V13.4191ZM0.949306 16.4706H1.13917V16.1718H0.949306V16.4706ZM2.84792 16.4706H3.03778V16.1718H2.84792V16.4706ZM1.89861 14.3437H2.08847V14.6425H2.65806V14.3437H2.27833V14.0378H1.89861V13.732H1.70875V13.4261H1.51889V13.732H1.32903V14.0378H1.13917V14.3437H1.32903V14.6425H1.89861V14.3437ZM1.70875 14.0378V14.3437H1.51889V14.0378H1.70875ZM1.51889 14.9484H1.70875V14.646H1.51889V14.9484ZM2.27833 14.9484H2.46819V14.646H2.27833V14.9484ZM2.46819 14.3402H2.84792V14.0343H2.65806V13.7285H2.46819V13.4226H2.27833V13.7285H2.08847V14.0343H2.46819V14.3402ZM3.03778 14.3437H3.22764V14.6425H3.79722V14.3437H3.4175V14.0378H3.03778V14.3437ZM3.60736 14.3402H3.98708V14.0343H3.79722V13.7285H3.60736V13.4226H3.4175V13.7285H3.22764V14.0343H3.60736V14.3402ZM3.4175 14.9484H3.60736V14.646H3.4175V14.9484ZM0 14.3437H0.189861V14.6425H0.759445V14.3437H0.379722V14.0378H0V14.3437ZM0.949306 14.3402H0.569584V14.0343H0.189861V13.7285H0.379722V13.4226H0.569584V13.7285H0.759445V14.0343H0.949306V14.3402ZM0.569584 14.9484H0.379722V14.646H0.569584V14.9484ZM0.949306 12.5085H0.189861V12.2027H0.949306V12.5085ZM1.89861 12.5085H1.13917V12.2027H1.89861V12.5085ZM2.84792 12.5085H2.08847V12.2027H2.84792V12.5085ZM3.79722 12.5085H3.03778V12.2027H3.79722V12.5085ZM2.27833 8.54293H2.08847V8.84879H2.27833V8.54293ZM1.89861 8.54293H1.70875V8.84879H1.89861V8.54293ZM0.949306 10.9828H0.759445V10.6769H0.949306V10.9828Z" fill="#B20000"/>
</g>
</g>
<path d="M1.99999 0V0.499998H22V0V-0.499998H1.99999V0ZM24 1.99999H23.5V15.9999H24H24.5V1.99999H24ZM22 17.9999V17.4999H1.99999V17.9999V18.4999H22V17.9999ZM0 15.9999H0.499998V1.99999H0H-0.499998V15.9999H0ZM1.99999 17.9999V17.4999C1.17157 17.4999 0.499998 16.8283 0.499998 15.9999H0H-0.499998C-0.499998 17.3806 0.619284 18.4999 1.99999 18.4999V17.9999ZM24 15.9999H23.5C23.5 16.8283 22.8284 17.4999 22 17.4999V17.9999V18.4999C23.3807 18.4999 24.5 17.3806 24.5 15.9999H24ZM22 0V0.499998C22.8284 0.499998 23.5 1.17157 23.5 1.99999H24H24.5C24.5 0.619286 23.3807 -0.499998 22 -0.499998V0ZM1.99999 0V-0.499998C0.619285 -0.499998 -0.499998 0.619285 -0.499998 1.99999H0H0.499998C0.499998 1.17157 1.17157 0.499998 1.99999 0.499998V0Z" fill="#DEE1E8" mask="url(#path-1-inside-1_1002_6)"/>
<defs>
<clipPath id="clip0_1002_6">
<path d="M0 1.99999C0 0.895426 0.895426 0 1.99999 0H22C23.1046 0 24 0.895426 24 1.99999V15.9999C24 17.1045 23.1046 17.9999 22 17.9999H1.99999C0.895425 17.9999 0 17.1045 0 15.9999V1.99999Z" fill="white"/>
</clipPath>
<clipPath id="clip1_1002_6">
<rect width="24.0001" height="18" fill="white"/>
</clipPath>
</defs>
</svg>
