<svg width="24" height="24" viewBox="0 0 24 24" fill="none" xmlns="http://www.w3.org/2000/svg">
<path d="M19 20V20.75H19.7538L19.75 19.9962L19 20ZM5 20H4.25V20.75H5V20ZM5 4V3.25H4.25V4H5ZM16 4L16.5303 3.46967L16.3107 3.25H16V4ZM19 7H19.75V6.68934L19.5303 6.46967L19 7ZM2.5 16H1.75V16.75H2.5V16ZM2.5 10L2.5 9.25L1.75 9.25V10H2.5ZM4.4 10V9.25H4.4L4.4 10ZM8.72761 9.8181C8.62715 9.41625 8.21994 9.17193 7.8181 9.27239C7.41625 9.37285 7.17193 9.78006 7.27239 10.1819L8 10L8.72761 9.8181ZM9.5 16L8.77239 16.1819C8.85327 16.5054 9.13801 16.7367 9.47122 16.7494C9.80442 16.7622 10.1061 16.5535 10.2115 16.2372L9.5 16ZM11.5 10L12.2115 9.76283C12.1094 9.45657 11.8228 9.25 11.5 9.25C11.1772 9.25 10.8906 9.45657 10.7885 9.76283L11.5 10ZM13.5 16L12.7885 16.2372C12.8939 16.5535 13.1956 16.7622 13.5288 16.7494C13.862 16.7367 14.1467 16.5054 14.2276 16.1819L13.5 16ZM15.7276 10.1819C15.8281 9.78006 15.5837 9.37285 15.1819 9.27239C14.7801 9.17193 14.3729 9.41625 14.2724 9.8181L15 10L15.7276 10.1819ZM17 11.6438H17.75V11.6438L17 11.6438ZM20.5 13.2877H21.25V12.5377H20.5V13.2877ZM19 20V19.25H5V20V20.75H19V20ZM5 4V4.75H16V4V3.25H5V4ZM16 4L15.4697 4.53033L18.4697 7.53033L19 7L19.5303 6.46967L16.5303 3.46967L16 4ZM5 8H5.75V4H5H4.25V8H5ZM5 20H5.75V18H5H4.25V20H5ZM19 7H18.25V8H19H19.75V7H19ZM18.9898 18L18.2398 18.0038L18.25 20.0038L19 20L19.75 19.9962L19.7398 17.9962L18.9898 18ZM2.5 16H3.25V10H2.5H1.75V16H2.5ZM2.5 10L2.5 10.75L4.4 10.75L4.4 10L4.4 9.25L2.5 9.25L2.5 10ZM4.4 10V10.75C4.55601 10.75 4.79973 10.7997 4.9804 10.9216C5.12097 11.0165 5.25 11.1655 5.25 11.5H6H6.75C6.75 10.6345 6.3457 10.0335 5.81961 9.67836C5.33361 9.35032 4.77733 9.25 4.4 9.25V10ZM6 11.5H5.25V14.5H6H6.75V11.5H6ZM6 14.5H5.25C5.25 14.6198 5.20515 14.8245 5.08518 14.9807C4.99217 15.1018 4.81534 15.25 4.4 15.25V16V16.75C5.26467 16.75 5.88783 16.3982 6.27482 15.8943C6.63485 15.4255 6.75 14.8802 6.75 14.5H6ZM4.4 16V15.25H2.5V16V16.75H4.4V16ZM8 10L7.27239 10.1819L8.77239 16.1819L9.5 16L10.2276 15.8181L8.72761 9.8181L8 10ZM9.5 16L10.2115 16.2372L12.2115 10.2372L11.5 10L10.7885 9.76283L8.78849 15.7628L9.5 16ZM11.5 10L10.7885 10.2372L12.7885 16.2372L13.5 16L14.2115 15.7628L12.2115 9.76283L11.5 10ZM13.5 16L14.2276 16.1819L15.7276 10.1819L15 10L14.2724 9.8181L12.7724 15.8181L13.5 16ZM18.6989 10V9.25C17.7966 9.25 17.1587 9.66372 16.7673 10.1811C16.4016 10.6646 16.25 11.2358 16.25 11.6439L17 11.6438L17.75 11.6438C17.75 11.5496 17.8026 11.2989 17.9636 11.086C18.099 10.9071 18.3104 10.75 18.6989 10.75V10ZM17 11.6438H16.25V14.2341H17H17.75V11.6438H17ZM17 14.2341H16.25C16.25 15.6153 17.2479 16.75 18.6989 16.75V16V15.25C18.1497 15.25 17.75 14.8622 17.75 14.2341H17ZM20.5 14.3836H21.25V13.2877H20.5H19.75V14.3836H20.5ZM20.5 13.2877V12.5377H18.9898V13.2877V14.0377H20.5V13.2877ZM20.5 11.6438H21.25C21.25 10.9196 20.9607 10.2996 20.4662 9.87019C19.9829 9.45044 19.3487 9.25 18.6989 9.25V10V10.75C19.0491 10.75 19.3155 10.8575 19.4827 11.0028C19.6388 11.1383 19.75 11.3403 19.75 11.6438H20.5ZM18.6989 16V16.75C19.3191 16.75 19.9548 16.5894 20.4505 16.1824C20.9669 15.7583 21.25 15.1321 21.25 14.3836H20.5H19.75C19.75 14.731 19.6326 14.913 19.4985 15.0231C19.3436 15.1504 19.0787 15.25 18.6989 15.25V16Z" fill="black"/>
</svg>
